<svg width="780" height="400" viewBox="0 0 780 400" fill="none" xmlns="http://www.w3.org/2000/svg">
<g clip-path="url(#clip0_1436_1369)">
<rect x="-2" y="-10" width="784" height="458" fill="#091B36"/>
<g filter="url(#filter0_f_1436_1369)">
<ellipse cx="99.5625" cy="50.5781" rx="101.562" ry="102.578" fill="#0941AB"/>
</g>
<g opacity="0.5" filter="url(#filter1_f_1436_1369)">
<ellipse cx="200.703" cy="13.7188" rx="110.703" ry="111.719" fill="#0941AB"/>
</g>
<g opacity="0.5" filter="url(#filter2_f_1436_1369)">
<ellipse cx="64.5" cy="421.708" rx="181.5" ry="126.708" fill="#0941AB"/>
</g>
<g opacity="0.5" filter="url(#filter3_f_1436_1369)">
<ellipse cx="667.5" cy="268.5" rx="275.5" ry="278.5" fill="#0941AB"/>
</g>
<ellipse cx="580.136" cy="191.879" rx="297.74" ry="120.993" transform="rotate(46.9208 580.136 191.879)" fill="url(#paint0_radial_1436_1369)"/>
<mask id="mask0_1436_1369" style="mask-type:alpha" maskUnits="userSpaceOnUse" x="246" y="-133" width="652" height="674">
<path d="M897.895 370.127L427.672 -132.73L246 37.1512L716.224 540.008L897.895 370.127Z" fill="url(#paint1_linear_1436_1369)"/>
</mask>
<g mask="url(#mask0_1436_1369)">
<g filter="url(#filter4_d_1436_1369)">
<path d="M364.027 394.433C468.913 506.598 644.736 512.623 756.737 407.89C868.739 303.157 874.507 127.326 769.621 15.1602C664.735 -97.0051 488.912 -103.03 376.911 1.70311C264.909 106.436 259.141 282.267 364.027 394.433Z" stroke="url(#paint2_linear_1436_1369)" stroke-width="1.41225"/>
</g>
<g filter="url(#filter5_d_1436_1369)">
<path d="M391.243 372.618C482.992 470.734 636.791 476.004 734.763 384.389C832.735 292.775 837.781 138.969 746.033 40.853C654.285 -57.2626 500.486 -62.5329 402.513 29.0815C304.541 120.696 299.495 274.502 391.243 372.618Z" stroke="url(#paint3_linear_1436_1369)" stroke-width="1.56316"/>
</g>
<g filter="url(#filter6_d_1436_1369)">
<path d="M414.865 350.75C494.453 435.862 627.869 440.433 712.857 360.961C797.844 281.489 802.221 148.066 722.633 62.9544C643.044 -22.1576 509.629 -26.7294 424.641 52.7431C339.653 132.216 335.276 265.638 414.865 350.75Z" stroke="url(#paint4_linear_1436_1369)" stroke-width="1.85617"/>
</g>
<g opacity="0.4">
<g filter="url(#filter7_d_1436_1369)">
<path d="M441.476 325.939C507.24 396.266 617.48 400.044 687.705 334.376C757.93 268.709 761.546 158.463 695.783 88.1356C630.019 17.8081 519.779 14.0305 449.554 79.698C379.329 145.366 375.712 255.611 441.476 325.939Z" stroke="url(#paint5_linear_1436_1369)" stroke-width="2.30229"/>
</g>
</g>
</g>
<path d="M94.1201 143H87.1109L82.503 131.318H63.2926L58.6847 143H52.0649L70.3018 98.0892H75.8183L94.1201 143ZM80.7507 126.061L72.8978 105.942L65.0449 126.061H80.7507ZM106.799 143H100.504V98.219H106.799V143ZM115.927 170.219L102.947 215H92.3678L83.8659 184.302L75.364 215H64.7853L51.8053 170.219H62.7734L70.5614 200.397L78.609 170.219H89.1228L97.2353 200.397L104.958 170.219H115.927ZM150.641 198.061C150.641 199.619 150.511 201.501 150.511 201.501H127.731C128.186 206.109 131.69 208.185 135.909 208.185C140.062 208.185 143.697 206.368 145.514 205.135L149.603 210.522C148.564 211.301 144.346 215.714 134.416 215.714C124.551 215.714 117.347 209.613 117.347 199.035C117.347 188.456 125.135 182.42 134.611 182.42C144.086 182.42 150.641 188.715 150.641 198.061ZM140.971 195.595C140.906 192.674 138.764 189.17 134.416 189.17C130.133 189.17 127.926 192.545 127.796 195.595H140.971ZM192.541 199.035C192.541 208.445 186.7 215.714 177.42 215.714C173.071 215.714 169.242 214.156 166.841 210.781H166.776L166.841 215H156.976V170.219H167.36V180.992C167.36 183.913 167.23 186.898 167.23 186.898H167.425C168.788 184.951 172.033 182.42 177.485 182.42C186.7 182.42 192.541 189.624 192.541 199.035ZM181.963 198.905C181.963 193.972 178.977 190.598 174.499 190.598C170.021 190.598 166.971 193.972 166.971 198.905C166.971 203.837 170.021 207.212 174.499 207.212C178.977 207.212 181.963 203.837 181.963 198.905ZM86.3321 273.371C86.3321 277.654 84.3202 281.548 81.0752 284.079C77.8951 286.611 73.7415 287.779 68.9389 287.779C62.4489 287.779 56.6728 284.404 53.0384 281.029L58.2304 273.371C61.4754 276.746 66.4727 279.017 69.9124 279.017C73.2872 279.017 75.8832 277.395 75.8832 274.409C75.8832 271.359 72.5733 270.191 70.6263 269.477C68.6793 268.763 65.3045 267.595 63.8118 266.946C62.7085 266.427 60.437 265.583 58.49 263.701C56.543 261.884 54.9854 259.288 54.9854 255.069C54.9854 250.786 57.0622 247.411 59.6582 245.269C62.1893 243.128 66.278 241.7 71.47 241.7C76.662 241.7 82.6328 244.166 85.6831 247.216L81.205 254.55C78.609 251.954 74.5852 250.007 71.2104 250.007C67.8356 250.007 65.3694 251.305 65.3694 254.031C65.3694 256.757 67.9005 257.795 69.9124 258.574C71.8594 259.353 75.1693 260.521 76.5971 261.105C77.8302 261.559 80.8156 262.727 82.8275 264.739C84.7096 266.621 86.3321 269.347 86.3321 273.371ZM119.74 283.885C119.415 284.144 116.041 287.714 107.539 287.714C98.7772 287.714 90.6647 281.743 90.6647 271.099C90.6647 260.391 98.907 254.42 107.668 254.42C115.846 254.42 119.545 257.795 119.545 257.795L117.274 265.648C116.365 264.934 113.509 262.792 109.031 262.792C104.618 262.792 101.114 265.843 101.114 270.905C101.114 275.967 104.294 279.147 109.161 279.147C114.029 279.147 117.274 276.032 117.274 276.032L119.74 283.885ZM147.083 255.004L146.498 264.545H146.044C145.46 264.22 144.097 263.766 142.28 263.766C139.944 263.766 138.256 265.064 137.477 266.102C136.699 267.141 135.855 269.217 135.855 272.787V287H125.471V255.004H135.855L135.79 259.547H135.92C137.737 256.043 140.398 254.42 143.838 254.42C145.979 254.42 147.083 255.004 147.083 255.004ZM179.285 287H169.355L169.161 283.625C167.798 284.988 165.202 287.714 160.01 287.714C154.364 287.714 148.393 284.664 148.393 277.525C148.393 270.386 154.948 267.984 160.854 267.725L168.901 267.4V266.686C168.901 263.311 166.5 261.559 162.346 261.559C158.258 261.559 154.169 263.376 152.546 264.415L149.821 257.665C152.546 256.302 157.544 254.42 163.514 254.42C169.485 254.42 172.925 255.783 175.456 258.119C177.922 260.456 179.285 263.571 179.285 268.958V287ZM168.966 272.917L163.839 273.241C160.659 273.371 158.777 274.734 158.777 277.135C158.777 279.601 160.789 281.094 163.644 281.094C166.435 281.094 168.317 279.277 168.966 278.174V272.917ZM222.769 271.035C222.769 280.445 216.928 287.714 207.647 287.714C202.91 287.714 199.535 285.962 197.523 282.976V298.747H187.139V255.004H197.004L196.939 259.093H197.069C199.405 256.302 202.845 254.42 207.712 254.42C216.928 254.42 222.769 261.624 222.769 271.035ZM212.19 270.905C212.19 265.972 209.14 262.598 204.662 262.598C200.249 262.598 197.199 265.972 197.199 270.905C197.199 275.837 200.249 279.212 204.662 279.212C209.14 279.212 212.19 275.837 212.19 270.905ZM240.288 245.918C240.288 249.163 237.886 251.305 234.382 251.305C230.877 251.305 228.476 249.163 228.476 245.918C228.476 242.738 230.877 240.532 234.382 240.532C237.886 240.532 240.288 242.738 240.288 245.918ZM239.574 287H229.19V255.004H239.574V287ZM279.262 287H268.878V270.321C268.878 266.102 268.229 262.922 263.946 262.922C259.468 262.922 258.234 266.556 258.234 271.164V287H247.85V255.004H258.234L258.17 259.612H258.299C260.052 256.757 262.972 254.42 267.58 254.42C276.861 254.42 279.262 260.391 279.262 268.114V287ZM320.987 280.51C320.987 287.389 319.235 291.413 316.12 294.334C313.004 297.254 308.721 299.396 301.387 299.396C293.989 299.396 288.083 296.281 285.876 294.658L290.16 287.714C292.042 289.142 296.909 291.348 301.193 291.348C305.476 291.348 307.618 289.985 308.721 288.817C309.824 287.584 310.668 285.313 310.668 282.457V281.419H310.538C308.591 283.95 305.476 285.962 300.479 285.962C292.626 285.962 285.357 280.51 285.357 270.191C285.357 259.872 292.626 254.42 300.479 254.42C305.865 254.42 308.916 256.886 310.603 259.093H310.733L310.603 255.004H320.987V280.51ZM310.928 270.256C310.928 265.907 308.072 262.533 303.464 262.533C298.856 262.533 295.936 265.907 295.936 270.256C295.936 274.669 298.856 278.044 303.464 278.044C308.072 278.044 310.928 274.669 310.928 270.256Z" fill="white"/>
<g filter="url(#filter8_d_1436_1369)">
<rect width="134.423" height="41.6816" rx="5.5344" transform="matrix(-1 0 0 1 729.074 43.2942)" fill="#42505D"/>
<path d="M625.036 61.4075H620.37V61.3989C620.111 61.3957 619.86 61.3185 619.65 61.1772C619.44 61.0359 619.283 60.8379 619.199 60.6099C619.184 60.5752 619.172 60.5395 619.162 60.5034L617.793 56.413L617.759 56.3105C617.7 56.1558 617.59 56.023 617.444 55.931C617.298 55.839 617.125 55.7926 616.949 55.7992C616.773 55.8058 616.604 55.8651 616.466 55.9676C616.329 56.0702 616.23 56.2106 616.185 56.3691L614.799 60.4881C614.8 60.4904 614.8 60.4932 614.799 60.4954C614.788 60.5385 614.774 60.5806 614.757 60.6219C614.671 60.8478 614.512 61.0439 614.303 61.1832C614.093 61.3224 613.843 61.3978 613.585 61.4002V61.4088H608.915C608.712 61.4417 608.528 61.5411 608.397 61.6891C608.265 61.8371 608.194 62.0236 608.198 62.2157C608.197 62.3398 608.226 62.4624 608.283 62.5746C608.34 62.6867 608.424 62.7856 608.527 62.8635L608.565 62.8921L612.191 65.462C612.364 65.5775 612.504 65.7298 612.6 65.906C612.696 66.0822 612.746 66.2775 612.745 66.4752C612.744 66.567 612.733 66.6587 612.711 66.7482C612.695 66.8172 612.673 66.8847 612.644 66.9499L611.269 71.0623V71.0769L611.258 71.1069C611.236 71.1829 611.225 71.2611 611.225 71.3399C611.222 71.4449 611.241 71.5494 611.281 71.6475C611.321 71.7456 611.382 71.8357 611.46 71.9118C611.538 71.9879 611.631 72.0485 611.734 72.0909C611.837 72.1332 611.948 72.156 612.061 72.1581C612.207 72.1589 612.351 72.1219 612.477 72.0516L612.623 71.9511L616.223 69.4079L616.302 69.3506C616.502 69.2219 616.738 69.1518 616.981 69.1496C617.224 69.1474 617.462 69.2135 617.664 69.3386C617.708 69.3649 617.75 69.3945 617.79 69.4272L621.369 71.9604L621.47 72.033C621.601 72.1098 621.754 72.15 621.909 72.1488C622.022 72.1463 622.133 72.1227 622.236 72.0802C622.339 72.0377 622.432 71.9771 622.509 71.9011C622.587 71.8251 622.647 71.7354 622.688 71.6375C622.728 71.5396 622.747 71.4354 622.744 71.3306C622.744 71.2484 622.732 71.1662 622.706 71.0876C622.706 71.0753 622.697 71.0619 622.694 71.0483L621.313 66.9213C621.29 66.8678 621.272 66.8125 621.259 66.7562C621.201 66.5308 621.211 66.2947 621.289 66.0745C621.366 65.8542 621.508 65.6582 621.698 65.5086C621.729 65.484 621.761 65.4625 621.794 65.4407L625.38 62.9041L625.488 62.8256C625.582 62.7478 625.656 62.6521 625.707 62.5453C625.757 62.4385 625.783 62.3231 625.781 62.2064C625.782 62.0118 625.706 61.8234 625.569 61.6765C625.432 61.5296 625.243 61.4342 625.036 61.4075Z" fill="#F9C400"/>
<path d="M647.831 61.4075H643.165V61.3989C642.906 61.3957 642.655 61.3185 642.445 61.1772C642.236 61.0359 642.078 60.8379 641.994 60.6099C641.979 60.5752 641.967 60.5395 641.957 60.5034L640.588 56.413L640.553 56.3105C640.494 56.1558 640.384 56.023 640.238 55.931C640.092 55.839 639.918 55.7926 639.742 55.7992C639.566 55.8058 639.397 55.8651 639.26 55.9676C639.122 56.0702 639.024 56.2106 638.978 56.3691L637.593 60.4881C637.593 60.4904 637.593 60.4932 637.593 60.4954C637.582 60.5385 637.568 60.5806 637.551 60.6219C637.465 60.8479 637.306 61.0439 637.097 61.1832C636.887 61.3224 636.637 61.398 636.379 61.4002V61.4088H631.709C631.506 61.4417 631.322 61.5411 631.19 61.6891C631.059 61.8371 630.988 62.0236 630.992 62.2157C630.991 62.3398 631.02 62.4624 631.077 62.5746C631.134 62.6867 631.217 62.7856 631.321 62.8635L631.359 62.8921L634.985 65.462C635.198 65.6063 635.36 65.8057 635.453 66.0352C635.545 66.2647 635.563 66.5145 635.505 66.7535C635.489 66.8225 635.466 66.89 635.438 66.9552L634.062 71.0676V71.0823L634.052 71.1122C634.03 71.1882 634.019 71.2671 634.019 71.3459C634.015 71.4509 634.034 71.5547 634.075 71.6528C634.115 71.7509 634.176 71.8411 634.253 71.9171C634.331 71.9932 634.424 72.0539 634.528 72.0962C634.631 72.1386 634.742 72.1613 634.855 72.1634C635.001 72.1641 635.145 72.1278 635.271 72.0576L635.417 71.9564L639.017 69.4139L639.096 69.3566C639.295 69.2278 639.532 69.1578 639.775 69.1556C640.017 69.1534 640.255 69.2188 640.458 69.344C640.502 69.3702 640.544 69.3998 640.583 69.4325L644.163 71.9657L644.264 72.0383C644.395 72.1151 644.548 72.1553 644.703 72.1541C644.815 72.1517 644.926 72.1287 645.029 72.0862C645.132 72.0437 645.225 71.9825 645.303 71.9065C645.38 71.8305 645.441 71.7407 645.481 71.6428C645.522 71.5449 645.541 71.4407 645.538 71.3359C645.538 71.2537 645.525 71.1722 645.5 71.0936C645.5 71.0813 645.491 71.0673 645.486 71.0536L644.105 66.9266C644.082 66.8731 644.064 66.8178 644.051 66.7615C644.026 66.6651 644.013 66.5665 644.013 66.4672C644.012 66.2856 644.053 66.1056 644.135 65.9406C644.217 65.7757 644.337 65.6295 644.486 65.5126C644.517 65.488 644.549 65.4665 644.581 65.4446L648.168 62.9088L648.276 62.8296C648.369 62.7518 648.444 62.656 648.494 62.5493C648.545 62.4425 648.57 62.3271 648.569 62.2104C648.571 62.0161 648.497 61.8274 648.361 61.6798C648.226 61.5322 648.037 61.4358 647.831 61.4075Z" fill="#F9C400"/>
<path d="M670.619 61.4075H665.953V61.3989C665.694 61.3957 665.443 61.3185 665.233 61.1772C665.023 61.0359 664.866 60.8379 664.781 60.6099C664.767 60.5752 664.755 60.5395 664.745 60.5034L663.376 56.413L663.34 56.3105C663.282 56.1558 663.171 56.023 663.026 55.931C662.88 55.839 662.706 55.7926 662.53 55.7992C662.354 55.8058 662.185 55.8651 662.047 55.9676C661.91 56.0702 661.811 56.2106 661.766 56.3691L660.381 60.4881C660.381 60.4881 660.381 60.4886 660.381 60.4954C660.37 60.5385 660.355 60.5805 660.338 60.6219C660.252 60.8478 660.094 61.0439 659.884 61.1832C659.675 61.3224 659.424 61.3978 659.167 61.4002V61.4088H654.497C654.294 61.4417 654.109 61.5411 653.978 61.6891C653.846 61.8371 653.776 62.0236 653.779 62.2157C653.778 62.3399 653.807 62.463 653.864 62.5752C653.921 62.6875 654.005 62.7859 654.109 62.8635L654.147 62.8921L657.773 65.462C657.986 65.6063 658.148 65.8057 658.241 66.0352C658.333 66.2647 658.351 66.5146 658.293 66.7535C658.277 66.8226 658.254 66.89 658.225 66.9552L656.85 71.0676V71.0823L656.84 71.1122C656.818 71.1882 656.806 71.2671 656.806 71.3459C656.803 71.4509 656.822 71.5548 656.862 71.6528C656.903 71.7509 656.963 71.8411 657.041 71.9171C657.119 71.9932 657.212 72.0539 657.315 72.0962C657.418 72.1386 657.53 72.1613 657.642 72.1635C657.789 72.1642 657.933 72.1279 658.058 72.0576L658.205 71.9564L661.804 69.4139L661.883 69.3566C662.083 69.2278 662.319 69.1578 662.562 69.1556C662.805 69.1534 663.043 69.2188 663.245 69.344C663.29 69.3702 663.332 69.3998 663.371 69.4325L666.95 71.9657L667.051 72.0383C667.183 72.1151 667.335 72.1553 667.491 72.1541C667.603 72.1517 667.714 72.1287 667.817 72.0862C667.92 72.0437 668.013 71.9825 668.09 71.9065C668.168 71.8305 668.229 71.7407 668.269 71.6428C668.309 71.5449 668.328 71.4407 668.325 71.3359C668.326 71.2537 668.313 71.1722 668.287 71.0936C668.287 71.0813 668.278 71.0673 668.276 71.0536L666.895 66.9266C666.872 66.8731 666.854 66.8178 666.84 66.7615C666.815 66.6651 666.803 66.5665 666.802 66.4673C666.801 66.2856 666.843 66.1056 666.924 65.9406C667.006 65.7757 667.126 65.6295 667.275 65.5126C667.306 65.488 667.338 65.4665 667.371 65.4447L670.957 62.9088L671.067 62.8296C671.16 62.7518 671.235 62.656 671.285 62.5493C671.336 62.4425 671.361 62.3271 671.36 62.2104C671.361 62.0157 671.287 61.8268 671.151 61.6791C671.015 61.5315 670.826 61.4352 670.619 61.4075Z" fill="#F9C400"/>
<path d="M693.409 61.4075H688.744V61.3989C688.485 61.3957 688.233 61.3185 688.024 61.1772C687.814 61.0359 687.656 60.8379 687.572 60.6099C687.558 60.5752 687.545 60.5395 687.535 60.5034L686.166 56.413L686.131 56.3105C686.072 56.1558 685.962 56.023 685.816 55.931C685.67 55.839 685.497 55.7926 685.321 55.7992C685.145 55.8058 684.976 55.8651 684.838 55.9676C684.701 56.0702 684.602 56.2106 684.557 56.3691L683.172 60.4881C683.172 60.4904 683.172 60.4932 683.172 60.4954C683.16 60.5385 683.146 60.5806 683.129 60.6219C683.043 60.8479 682.885 61.0439 682.675 61.1832C682.466 61.3224 682.215 61.398 681.958 61.4002V61.4088H677.287C677.084 61.4417 676.9 61.5411 676.769 61.6891C676.637 61.8371 676.567 62.0236 676.57 62.2157C676.568 62.3399 676.597 62.463 676.654 62.5752C676.712 62.6875 676.795 62.7859 676.899 62.8635L676.937 62.8921L680.563 65.462C680.776 65.6061 680.939 65.8056 681.032 66.0352C681.124 66.2647 681.142 66.5145 681.083 66.7535C681.067 66.8226 681.045 66.89 681.016 66.9552L679.641 71.0676V71.0823L679.629 71.1122C679.607 71.1882 679.596 71.2671 679.595 71.3459C679.592 71.4509 679.611 71.5547 679.651 71.6528C679.692 71.7509 679.753 71.8411 679.83 71.9171C679.908 71.9932 680.001 72.0539 680.104 72.0962C680.208 72.1386 680.319 72.1613 680.432 72.1634C680.578 72.1641 680.722 72.1278 680.847 72.0576L680.994 71.9564L684.593 69.4139L684.673 69.3566C684.872 69.2278 685.109 69.1578 685.351 69.1556C685.594 69.1534 685.832 69.2188 686.034 69.344C686.08 69.3701 686.122 69.3997 686.162 69.4325L689.741 71.9657L689.842 72.0383C689.974 72.1151 690.126 72.1553 690.281 72.1541C690.394 72.1517 690.505 72.1287 690.608 72.0862C690.711 72.0437 690.804 71.9825 690.881 71.9065C690.959 71.8305 691.019 71.7407 691.06 71.6428C691.1 71.5449 691.119 71.4407 691.116 71.3359C691.116 71.2537 691.104 71.1722 691.078 71.0936C691.078 71.0813 691.069 71.0673 691.065 71.0536L689.684 66.9266C689.661 66.8731 689.643 66.8178 689.63 66.7615C689.604 66.6651 689.592 66.5665 689.592 66.4672C689.59 66.2856 689.632 66.1056 689.714 65.9406C689.795 65.7757 689.915 65.6295 690.065 65.5126C690.095 65.488 690.127 65.4665 690.16 65.4446L693.746 62.9088L693.854 62.8296C693.948 62.7518 694.022 62.656 694.073 62.5493C694.123 62.4425 694.149 62.3271 694.147 62.2104C694.149 62.0161 694.075 61.8274 693.94 61.6798C693.804 61.5322 693.616 61.4358 693.409 61.4075Z" fill="#F9C400"/>
<path d="M716.199 61.4075H711.533V61.3989C711.274 61.3957 711.023 61.3185 710.813 61.1772C710.603 61.0359 710.446 60.8379 710.361 60.6099C710.347 60.5752 710.335 60.5395 710.325 60.5034L708.956 56.413L708.92 56.3105C708.862 56.1558 708.751 56.023 708.606 55.931C708.46 55.839 708.286 55.7926 708.11 55.7992C707.934 55.8058 707.765 55.8651 707.627 55.9676C707.49 56.0702 707.391 56.2106 707.346 56.3691L705.961 60.4881C705.961 60.4881 705.961 60.4886 705.961 60.4954C705.95 60.5385 705.936 60.5806 705.918 60.6219C705.832 60.8479 705.674 61.0439 705.464 61.1832C705.255 61.3224 705.004 61.398 704.747 61.4002V61.4088H700.075C699.872 61.4417 699.688 61.5411 699.556 61.6891C699.425 61.8371 699.354 62.0236 699.358 62.2157C699.357 62.3398 699.386 62.4624 699.443 62.5746C699.5 62.6867 699.584 62.7856 699.687 62.8635L699.725 62.8921L703.356 65.4593C703.568 65.6036 703.731 65.803 703.823 66.0325C703.916 66.262 703.934 66.5119 703.875 66.7509C703.86 66.8199 703.837 66.8874 703.808 66.9526L702.433 71.065V71.0796L702.423 71.1096C702.4 71.1855 702.388 71.2637 702.388 71.3426C702.384 71.4475 702.403 71.5521 702.444 71.6502C702.484 71.7482 702.545 71.8384 702.623 71.9145C702.7 71.9905 702.793 72.0512 702.897 72.0935C703 72.1359 703.111 72.1587 703.224 72.1608C703.37 72.1615 703.514 72.1245 703.64 72.0543L703.786 71.9537L707.386 69.4106L707.465 69.3533C707.664 69.2245 707.901 69.1551 708.144 69.1529C708.387 69.1507 708.624 69.2162 708.827 69.3413C708.871 69.3676 708.913 69.3971 708.953 69.4299L712.532 71.9631L712.633 72.0356C712.764 72.1124 712.917 72.1526 713.072 72.1515C713.185 72.149 713.296 72.126 713.398 72.0836C713.501 72.0411 713.594 71.9798 713.672 71.9038C713.749 71.8278 713.81 71.7381 713.85 71.6402C713.891 71.5423 713.91 71.4381 713.907 71.3333C713.907 71.251 713.894 71.1696 713.869 71.0909C713.869 71.0786 713.86 71.0646 713.856 71.051L712.475 66.924C712.452 66.8704 712.434 66.8151 712.42 66.7589C712.395 66.6624 712.382 66.5638 712.382 66.4646C712.381 66.2829 712.423 66.1029 712.504 65.938C712.586 65.773 712.706 65.6268 712.855 65.5099C712.886 65.4854 712.918 65.4638 712.95 65.442L716.537 62.9055L716.645 62.8269C716.739 62.7491 716.813 62.6534 716.864 62.5466C716.914 62.4399 716.939 62.3244 716.938 62.2078C716.939 62.0137 716.865 61.8256 716.729 61.6785C716.593 61.5314 716.405 61.4355 716.199 61.4075Z" fill="#F9C400"/>
</g>
<g filter="url(#filter9_d_1436_1369)">
<rect width="64.6065" height="38.5555" rx="5.5344" transform="matrix(-1 0 0 1 719.696 124.573)" fill="#42505D"/>
</g>
<path d="M535.644 183.654V139.412C535.644 138.538 534.936 137.83 534.063 137.83L492.876 137.83" stroke="#15C1E6" stroke-width="1.58126" stroke-dasharray="4.74 4.74"/>
<path d="M561.102 183.654V123.199C561.102 122.326 560.394 121.618 559.521 121.618H539.456C538.583 121.618 537.875 120.91 537.875 120.037L537.875 66.0937C537.875 65.2204 537.167 64.5125 536.293 64.5125H521.485H505.095" stroke="#15C1E6" stroke-width="1.58126" stroke-dasharray="4.74 4.74"/>
<path d="M580.45 183.654L580.45 110.615C580.45 109.742 581.158 109.034 582.031 109.034H660.333C661.206 109.034 661.914 108.326 661.914 107.453V84.8784" stroke="#15C1E6" stroke-width="1.58126" stroke-dasharray="4.74 4.74"/>
<path d="M601.834 183.654L601.834 145.521C601.834 144.648 602.542 143.94 603.415 143.94H650.712" stroke="#15C1E6" stroke-width="1.58126" stroke-dasharray="4.74 4.74"/>
<path fill-rule="evenodd" clip-rule="evenodd" d="M683.304 144.508C683.304 142.635 684.822 141.117 686.695 141.117H705.884C707.757 141.117 709.276 142.635 709.276 144.508C709.276 146.381 707.757 147.9 705.884 147.9H686.695C684.822 147.9 683.304 146.381 683.304 144.508Z" fill="#3D7FFC"/>
<path d="M676.102 146.786C676.102 144.687 674.771 143.303 672.659 142.444L671.016 141.8L671.12 137.983C672.085 138.103 673.285 138.675 674.172 139.582L675.789 137.22C674.745 136.075 672.972 135.407 671.407 135.288L671.433 133.952H669.555L669.503 135.24C668.095 135.359 666.738 135.765 665.852 136.48C664.887 137.244 664.13 138.365 664.13 139.94C664.13 141.896 665.382 142.945 665.956 143.351C666.53 143.78 667.312 144.138 668.303 144.52L669.19 144.854L669.112 148.838C667.99 148.814 666.112 147.979 665.356 146.882L663.426 149.267C664.73 150.77 666.869 151.629 668.825 151.701L668.773 152.965H670.651L670.703 151.653C671.694 151.581 673.18 151.128 674.093 150.46C675.11 149.721 676.102 148.48 676.102 146.786ZM669.477 137.959L669.399 141.275L669.112 141.156C668.46 140.87 667.782 140.441 667.782 139.558C667.782 138.627 668.486 138.031 669.477 137.959ZM672.502 147.24C672.502 148.17 671.563 148.814 670.755 148.886L670.833 145.331L671.25 145.522C672.033 145.88 672.502 146.333 672.502 147.24Z" fill="#3D7FFC"/>
<g filter="url(#filter10_d_1436_1369)">
<rect width="93.1749" height="40.8195" rx="5.5344" transform="matrix(-1 0 0 1 498.175 114.851)" fill="#42505D"/>
<rect x="443.158" y="131.713" width="43.4816" height="6.21166" rx="3.10583" fill="#15C1E6"/>
<path fill-rule="evenodd" clip-rule="evenodd" d="M426.294 142.845C431.195 142.845 435.168 139.16 435.168 134.616C435.168 130.071 431.195 126.386 426.294 126.386C421.393 126.386 417.42 130.071 417.42 134.616C417.42 137.195 418.7 139.497 420.703 141.006L421.039 143.538C421.104 144.024 421.639 144.287 422.06 144.04L424.414 142.66C425.02 142.781 425.649 142.845 426.294 142.845Z" fill="#15C1E6"/>
</g>
<g filter="url(#filter11_d_1436_1369)">
<path d="M443.008 40.5372C443.008 38.0314 445.11 36 447.702 36H504.503C507.096 36 509.198 38.0314 509.198 40.5372V80.8243C509.198 83.3302 507.096 85.3616 504.503 85.3616H447.702C445.11 85.3616 443.008 83.3302 443.008 80.8243V40.5372Z" fill="#42505D"/>
</g>
<path fill-rule="evenodd" clip-rule="evenodd" d="M497.474 78.2163C499.118 78.2163 500.115 76.4023 499.234 75.0148L487.475 56.5015C486.656 55.2125 484.775 55.2125 483.956 56.5015L475.704 69.4943C474.97 70.6497 473.341 70.796 472.413 69.7898L466.601 63.4881C465.723 62.5356 464.197 62.607 463.412 63.6375L454.85 74.8687C453.804 76.2405 454.782 78.2163 456.507 78.2163H470.164H480.111H497.474Z" fill="#9D97F4"/>
<path d="M464.121 49.1098C464.121 51.6437 461.986 53.6979 459.353 53.6979C456.72 53.6979 454.586 51.6437 454.586 49.1098C454.586 46.5759 456.72 44.5217 459.353 44.5217C461.986 44.5217 464.121 46.5759 464.121 49.1098Z" fill="#9D97F4"/>
<path d="M675.4 183.654H462.172C457.221 183.654 453.207 187.663 453.207 192.608V336.283C453.207 341.229 457.221 345.238 462.172 345.238H675.4C680.351 345.238 684.365 341.229 684.365 336.283V192.608C684.365 187.663 680.351 183.654 675.4 183.654Z" fill="#4D5B6C"/>
<path d="M672.178 195.696H465.726V327.74H672.178V195.696Z" fill="#24303E"/>
<rect x="479.336" y="205.085" width="7.59831" height="4.06011" rx="2.03005" fill="#526373"/>
<rect x="511.314" y="205.085" width="29.1618" height="4.06011" rx="2.03005" fill="#8599AC"/>
<rect x="544.507" y="205.038" width="28.6635" height="4.1868" rx="2.0934" fill="#70879C"/>
<rect x="578.111" y="205.038" width="54.9883" height="4.07321" rx="2.0366" fill="#8599AC"/>
<rect x="479.336" y="285.585" width="7.59831" height="4.03981" rx="2.0199" fill="#526373"/>
<rect x="505.592" y="285.598" width="29.1618" height="4.03981" rx="2.0199" fill="#8599AC"/>
<rect x="539.818" y="285.598" width="37.3869" height="4.03981" rx="2.0199" fill="#D2DCE4"/>
<rect x="582.266" y="285.598" width="15.1966" height="4.03981" rx="2.0199" fill="#70879C"/>
<rect x="602.536" y="285.598" width="48.1226" height="4.03981" rx="2.0199" fill="#8599AC"/>
<rect x="578.414" y="301.41" width="37.3869" height="3.99058" rx="1.99529" fill="#9BACBC"/>
<rect x="620.629" y="301.41" width="8.97286" height="3.99058" rx="1.99529" fill="#70879C"/>
<rect x="479.336" y="301.41" width="7.59831" height="3.99058" rx="1.99529" fill="#526373"/>
<rect x="505.592" y="301.41" width="20.9367" height="3.99058" rx="1.99529" fill="#8599AC"/>
<rect x="531.985" y="301.41" width="41.1256" height="3.99058" rx="1.99529" fill="#70879C"/>
<rect x="604.655" y="237.078" width="41.1256" height="4.19812" rx="2.09906" fill="#9BACBC"/>
<rect x="479.336" y="237.078" width="7.59831" height="4.19812" rx="2.09906" fill="#526373"/>
<rect x="521.076" y="237.078" width="33.6482" height="4.19812" rx="2.09906" fill="#70879C"/>
<rect x="616.807" y="221.331" width="33.6482" height="4.19812" rx="2.09906" fill="#70879C"/>
<path d="M559.911 239.177C559.911 238.018 560.851 237.078 562.01 237.078H597.442C598.601 237.078 599.541 238.018 599.541 239.177C599.541 240.336 598.601 241.276 597.442 241.276H562.01C560.851 241.276 559.911 240.336 559.911 239.177Z" fill="#8599AC"/>
<rect x="657.539" y="321.364" width="17.5451" height="4.12825" rx="2.06412" transform="rotate(-180 657.539 321.364)" fill="#70879C"/>
<rect x="634.992" y="321.317" width="29.1618" height="4.06125" rx="2.03062" transform="rotate(-180 634.992 321.317)" fill="#8599AC"/>
<rect x="479.336" y="317.236" width="7.59831" height="4.06125" rx="2.03062" fill="#526373"/>
<rect x="522.422" y="317.255" width="33.6482" height="4.06125" rx="2.03062" fill="#70879C"/>
<path d="M561.134 319.286C561.134 318.164 562.043 317.255 563.165 317.255H598.734C599.855 317.255 600.764 318.164 600.764 319.286C600.764 320.407 599.855 321.316 598.734 321.316H563.165C562.043 321.316 561.134 320.407 561.134 319.286Z" fill="#9BACBC"/>
<rect x="479.336" y="253.248" width="7.59831" height="4.19812" rx="2.09906" fill="#526373"/>
<rect x="505.592" y="253.256" width="49.3507" height="4.19812" rx="2.09906" fill="#8599AC"/>
<rect x="559.622" y="253.256" width="18.6935" height="4.19812" rx="2.09906" fill="#70879C"/>
<rect x="583.261" y="253.256" width="49.3507" height="4.19812" rx="2.09906" fill="#8599AC"/>
<rect x="479.336" y="220.91" width="7.59831" height="4.19812" rx="2.09906" fill="#526373"/>
<rect x="505.255" y="220.91" width="42.0755" height="4.03925" rx="2.01962" fill="#8599AC"/>
<rect x="551.706" y="220.91" width="18.6935" height="4.19812" rx="2.09906" fill="#70879C"/>
<rect x="574.959" y="220.819" width="13.8487" height="4.1868" rx="2.0934" fill="#8599AC"/>
<rect x="597.419" y="269.417" width="20.9367" height="4.19812" rx="2.09906" fill="#8599AC"/>
<rect x="479.336" y="269.417" width="7.59831" height="4.19812" rx="2.09906" fill="#526373"/>
<rect x="514.679" y="269.417" width="43.3688" height="4.19812" rx="2.09906" fill="#70879C"/>
<path d="M562.803 271.516C562.803 270.356 563.743 269.417 564.902 269.417H590.613C591.773 269.417 592.712 270.356 592.712 271.516C592.712 272.675 591.773 273.615 590.613 273.615H564.902C563.743 273.615 562.803 272.675 562.803 271.516Z" fill="#D2DCE4"/>
<path d="M707.018 336.849C707.018 335.857 706.318 335.053 705.455 335.053H568.738H432.02C431.157 335.053 430.458 335.857 430.458 336.849V345.3C430.458 346.292 431.157 347.096 432.02 347.096H705.455C706.318 347.096 707.018 346.292 707.018 345.3V336.849Z" fill="#24303E"/>
<path d="M544.006 335.053H594.238V335.435C594.238 336.565 593.789 337.649 592.989 338.448C592.189 339.247 591.104 339.696 589.972 339.696H548.282C547.151 339.696 546.066 339.247 545.266 338.448C544.466 337.649 544.017 336.565 544.017 335.435V335.053H544.006Z" fill="#70879C"/>
<g filter="url(#filter12_d_1436_1369)">
<g filter="url(#filter13_dd_1436_1369)">
<rect x="528.215" y="221.331" width="84.2146" height="84.215" rx="13.6295" fill="url(#paint6_linear_1436_1369)"/>
<rect x="527.246" y="220.363" width="86.151" height="86.1515" rx="14.5977" stroke="url(#paint7_linear_1436_1369)" stroke-width="1.93644"/>
</g>
</g>
<path d="M568.988 271.97H554.333L551.088 280.569H543.787L558.443 243.199H565.257L579.913 280.569H572.233L568.988 271.97ZM556.063 266.346H567.258L561.687 251.257L556.063 266.346ZM584.674 243.253H591.704V280.569H584.674V243.253Z" fill="#15C1E6"/>
<g filter="url(#filter14_dd_1436_1369)">
<path d="M690.55 265.118H642.008C640.462 265.118 639.21 266.091 639.21 267.291V351.712C639.21 352.912 640.462 353.885 642.008 353.885H690.55C692.095 353.885 693.348 352.912 693.348 351.712V267.291C693.348 266.091 692.095 265.118 690.55 265.118Z" fill="#4D5B6C"/>
<path d="M642.008 265.492H690.55C691.982 265.492 692.974 266.38 692.974 267.291V351.712C692.974 352.624 691.982 353.512 690.55 353.512H642.008C640.575 353.512 639.583 352.624 639.583 351.712V267.291C639.583 266.38 640.575 265.492 642.008 265.492Z" stroke="white" stroke-opacity="0.3" stroke-width="0.747487"/>
</g>
<g filter="url(#filter15_d_1436_1369)">
<path d="M684.44 279.898H647.927C645.561 279.898 643.644 281.816 643.644 284.181V336.213C643.644 338.579 645.561 340.496 647.927 340.496H684.44C686.805 340.496 688.723 338.579 688.723 336.213V284.181C688.723 281.816 686.805 279.898 684.44 279.898Z" fill="#24303E"/>
<path d="M647.927 280.272H684.44C686.599 280.272 688.349 282.022 688.349 284.181V336.213C688.349 338.372 686.599 340.123 684.44 340.123H647.927C645.768 340.123 644.017 338.372 644.017 336.213V284.181C644.017 282.022 645.768 280.272 647.927 280.272Z" stroke="white" stroke-opacity="0.3" stroke-width="0.747487"/>
</g>
<path d="M683.919 287.288H665.873C664.795 287.288 663.922 288.162 663.922 289.239C663.922 290.317 664.795 291.19 665.873 291.19H683.919C684.996 291.19 685.87 290.317 685.87 289.239C685.87 288.162 684.996 287.288 683.919 287.288Z" fill="white" fill-opacity="0.2"/>
<path d="M649.439 287.288H649.141C648.146 287.288 647.339 288.095 647.339 289.09V289.388C647.339 290.383 648.146 291.19 649.141 291.19H649.439C650.434 291.19 651.241 290.383 651.241 289.388V289.09C651.241 288.095 650.434 287.288 649.439 287.288Z" fill="#3D7FFC"/>
<path d="M654.804 287.288H654.506C653.511 287.288 652.704 288.095 652.704 289.09V289.388C652.704 290.383 653.511 291.19 654.506 291.19H654.804C655.799 291.19 656.606 290.383 656.606 289.388V289.09C656.606 288.095 655.799 287.288 654.804 287.288Z" fill="#15C1E6"/>
<path d="M660.169 287.288H659.871C658.876 287.288 658.069 288.095 658.069 289.09V289.388C658.069 290.383 658.876 291.19 659.871 291.19H660.169C661.164 291.19 661.971 290.383 661.971 289.388V289.09C661.971 288.095 661.164 287.288 660.169 287.288Z" fill="#9D97F4"/>
<path d="M683.919 297.634H665.873C664.795 297.634 663.922 298.508 663.922 299.585C663.922 300.663 664.795 301.536 665.873 301.536H683.919C684.996 301.536 685.87 300.663 685.87 299.585C685.87 298.508 684.996 297.634 683.919 297.634Z" fill="white" fill-opacity="0.2"/>
<path d="M649.439 297.634H649.141C648.146 297.634 647.339 298.441 647.339 299.436V299.734C647.339 300.729 648.146 301.536 649.141 301.536H649.439C650.434 301.536 651.241 300.729 651.241 299.734V299.436C651.241 298.441 650.434 297.634 649.439 297.634Z" fill="#3D7FFC"/>
<path d="M654.804 297.634H654.506C653.511 297.634 652.704 298.441 652.704 299.436V299.734C652.704 300.729 653.511 301.536 654.506 301.536H654.804C655.799 301.536 656.606 300.729 656.606 299.734V299.436C656.606 298.441 655.799 297.634 654.804 297.634Z" fill="#3D7FFC"/>
<path d="M660.169 297.634H659.871C658.876 297.634 658.069 298.441 658.069 299.436V299.734C658.069 300.729 658.876 301.536 659.871 301.536H660.169C661.164 301.536 661.971 300.729 661.971 299.734V299.436C661.971 298.441 661.164 297.634 660.169 297.634Z" fill="#15C1E6"/>
<path d="M683.919 307.98H665.873C664.795 307.98 663.922 308.854 663.922 309.931C663.922 311.009 664.795 311.882 665.873 311.882H683.919C684.996 311.882 685.87 311.009 685.87 309.931C685.87 308.854 684.996 307.98 683.919 307.98Z" fill="white" fill-opacity="0.2"/>
<path d="M649.439 307.98H649.141C648.146 307.98 647.339 308.787 647.339 309.782V310.08C647.339 311.075 648.146 311.882 649.141 311.882H649.439C650.434 311.882 651.241 311.075 651.241 310.08V309.782C651.241 308.787 650.434 307.98 649.439 307.98Z" fill="#15C1E6"/>
<path d="M654.804 307.98H654.506C653.511 307.98 652.704 308.787 652.704 309.782V310.08C652.704 311.075 653.511 311.882 654.506 311.882H654.804C655.799 311.882 656.606 311.075 656.606 310.08V309.782C656.606 308.787 655.799 307.98 654.804 307.98Z" fill="#9D97F4"/>
<path d="M660.169 307.98H659.871C658.876 307.98 658.069 308.787 658.069 309.782V310.08C658.069 311.075 658.876 311.882 659.871 311.882H660.169C661.164 311.882 661.971 311.075 661.971 310.08V309.782C661.971 308.787 661.164 307.98 660.169 307.98Z" fill="#3D7FFC"/>
<path d="M683.919 318.326H665.873C664.795 318.326 663.922 319.2 663.922 320.277C663.922 321.355 664.795 322.228 665.873 322.228H683.919C684.996 322.228 685.87 321.355 685.87 320.277C685.87 319.2 684.996 318.326 683.919 318.326Z" fill="white" fill-opacity="0.2"/>
<path d="M649.439 318.326H649.141C648.146 318.326 647.339 319.133 647.339 320.128V320.426C647.339 321.421 648.146 322.228 649.141 322.228H649.439C650.434 322.228 651.241 321.421 651.241 320.426V320.128C651.241 319.133 650.434 318.326 649.439 318.326Z" fill="#3D7FFC"/>
<path d="M654.804 318.326H654.506C653.511 318.326 652.704 319.133 652.704 320.128V320.426C652.704 321.421 653.511 322.228 654.506 322.228H654.804C655.799 322.228 656.606 321.421 656.606 320.426V320.128C656.606 319.133 655.799 318.326 654.804 318.326Z" fill="#15C1E6"/>
<path d="M660.169 318.326H659.871C658.876 318.326 658.069 319.133 658.069 320.128V320.426C658.069 321.421 658.876 322.228 659.871 322.228H660.169C661.164 322.228 661.971 321.421 661.971 320.426V320.128C661.971 319.133 661.164 318.326 660.169 318.326Z" fill="#3D7FFC"/>
<path d="M683.919 328.672H665.873C664.795 328.672 663.922 329.546 663.922 330.623C663.922 331.701 664.795 332.574 665.873 332.574H683.919C684.996 332.574 685.87 331.701 685.87 330.623C685.87 329.546 684.996 328.672 683.919 328.672Z" fill="white" fill-opacity="0.2"/>
<path d="M649.439 328.672H649.141C648.146 328.672 647.339 329.479 647.339 330.474V330.772C647.339 331.767 648.146 332.574 649.141 332.574H649.439C650.434 332.574 651.241 331.767 651.241 330.772V330.474C651.241 329.479 650.434 328.672 649.439 328.672Z" fill="#3D7FFC"/>
<path d="M654.804 328.672H654.506C653.511 328.672 652.704 329.479 652.704 330.474V330.772C652.704 331.767 653.511 332.574 654.506 332.574H654.804C655.799 332.574 656.606 331.767 656.606 330.772V330.474C656.606 329.479 655.799 328.672 654.804 328.672Z" fill="#15C1E6"/>
<path d="M660.169 328.672H659.871C658.876 328.672 658.069 329.479 658.069 330.474V330.772C658.069 331.767 658.876 332.574 659.871 332.574H660.169C661.164 332.574 661.971 331.767 661.971 330.772V330.474C661.971 329.479 661.164 328.672 660.169 328.672Z" fill="#3D7FFC"/>
<path d="M656.147 271.293C656.353 270.42 655.811 269.545 654.937 269.339C654.062 269.133 653.186 269.674 652.98 270.547C652.773 271.42 653.315 272.295 654.189 272.501C655.064 272.707 655.94 272.167 656.147 271.293Z" fill="#0BE597"/>
<path d="M651.267 271.182C651.411 270.297 650.809 269.462 649.922 269.319C649.035 269.175 648.2 269.776 648.056 270.662C647.912 271.547 648.514 272.382 649.401 272.526C650.288 272.669 651.123 272.068 651.267 271.182Z" fill="#0BE597"/>
<path d="M645.905 272.07C646.54 271.436 646.54 270.407 645.905 269.773C645.269 269.138 644.239 269.138 643.604 269.773C642.968 270.407 642.968 271.436 643.604 272.07C644.239 272.704 645.269 272.704 645.905 272.07Z" fill="#0BE597"/>
<g filter="url(#filter16_dd_1436_1369)">
<path d="M726.022 276.203H677.48C675.934 276.203 674.682 277.176 674.682 278.377V362.798C674.682 363.998 675.934 364.971 677.48 364.971H726.022C727.567 364.971 728.82 363.998 728.82 362.798V278.377C728.82 277.176 727.567 276.203 726.022 276.203Z" fill="#4D5B6C"/>
<path d="M677.48 276.577H726.022C727.454 276.577 728.446 277.465 728.446 278.377V362.798C728.446 363.709 727.454 364.597 726.022 364.597H677.48C676.047 364.597 675.055 363.709 675.055 362.798V278.377C675.055 277.465 676.047 276.577 677.48 276.577Z" stroke="white" stroke-opacity="0.3" stroke-width="0.747487"/>
</g>
<g filter="url(#filter17_d_1436_1369)">
<path d="M719.912 290.983H683.399C681.034 290.983 679.116 292.901 679.116 295.266V347.299C679.116 349.664 681.034 351.582 683.399 351.582H719.912C722.278 351.582 724.195 349.664 724.195 347.299V295.266C724.195 292.901 722.278 290.983 719.912 290.983Z" fill="#24303E"/>
<path d="M683.399 291.357H719.912C722.071 291.357 723.822 293.107 723.822 295.266V347.299C723.822 349.458 722.071 351.208 719.912 351.208H683.399C681.24 351.208 679.49 349.458 679.49 347.299V295.266C679.49 293.107 681.24 291.357 683.399 291.357Z" stroke="white" stroke-opacity="0.3" stroke-width="0.747487"/>
</g>
<path d="M719.391 298.373H701.345C700.267 298.373 699.394 299.247 699.394 300.324C699.394 301.401 700.267 302.275 701.345 302.275H719.391C720.468 302.275 721.342 301.401 721.342 300.324C721.342 299.247 720.468 298.373 719.391 298.373Z" fill="white" fill-opacity="0.2"/>
<path d="M684.911 298.373H684.613C683.618 298.373 682.811 299.18 682.811 300.175V300.473C682.811 301.468 683.618 302.275 684.613 302.275H684.911C685.906 302.275 686.713 301.468 686.713 300.473V300.175C686.713 299.18 685.906 298.373 684.911 298.373Z" fill="#3D7FFC"/>
<path d="M690.276 298.373H689.978C688.983 298.373 688.176 299.18 688.176 300.175V300.473C688.176 301.468 688.983 302.275 689.978 302.275H690.276C691.271 302.275 692.078 301.468 692.078 300.473V300.175C692.078 299.18 691.271 298.373 690.276 298.373Z" fill="#15C1E6"/>
<path d="M695.641 298.373H695.343C694.348 298.373 693.541 299.18 693.541 300.175V300.473C693.541 301.468 694.348 302.275 695.343 302.275H695.641C696.636 302.275 697.443 301.468 697.443 300.473V300.175C697.443 299.18 696.636 298.373 695.641 298.373Z" fill="#3D7FFC"/>
<path d="M719.391 308.72H701.345C700.267 308.72 699.394 309.593 699.394 310.671C699.394 311.748 700.267 312.622 701.345 312.622H719.391C720.468 312.622 721.342 311.748 721.342 310.671C721.342 309.593 720.468 308.72 719.391 308.72Z" fill="white" fill-opacity="0.2"/>
<path d="M684.911 308.72H684.613C683.618 308.72 682.811 309.527 682.811 310.522V310.82C682.811 311.815 683.618 312.622 684.613 312.622H684.911C685.906 312.622 686.713 311.815 686.713 310.82V310.522C686.713 309.527 685.906 308.72 684.911 308.72Z" fill="#9D97F4"/>
<path d="M690.276 308.72H689.978C688.983 308.72 688.176 309.527 688.176 310.522V310.82C688.176 311.815 688.983 312.622 689.978 312.622H690.276C691.271 312.622 692.078 311.815 692.078 310.82V310.522C692.078 309.527 691.271 308.72 690.276 308.72Z" fill="#3D7FFC"/>
<path d="M695.641 308.72H695.343C694.348 308.72 693.541 309.527 693.541 310.522V310.82C693.541 311.815 694.348 312.622 695.343 312.622H695.641C696.636 312.622 697.443 311.815 697.443 310.82V310.522C697.443 309.527 696.636 308.72 695.641 308.72Z" fill="#15C1E6"/>
<path d="M719.391 319.065H701.345C700.267 319.065 699.394 319.939 699.394 321.016C699.394 322.094 700.267 322.967 701.345 322.967H719.391C720.468 322.967 721.342 322.094 721.342 321.016C721.342 319.939 720.468 319.065 719.391 319.065Z" fill="white" fill-opacity="0.2"/>
<path d="M684.911 319.065H684.613C683.618 319.065 682.811 319.872 682.811 320.867V321.165C682.811 322.161 683.618 322.967 684.613 322.967H684.911C685.906 322.967 686.713 322.161 686.713 321.165V320.867C686.713 319.872 685.906 319.065 684.911 319.065Z" fill="#15C1E6"/>
<path d="M690.276 319.065H689.978C688.983 319.065 688.176 319.872 688.176 320.867V321.165C688.176 322.161 688.983 322.967 689.978 322.967H690.276C691.271 322.967 692.078 322.161 692.078 321.165V320.867C692.078 319.872 691.271 319.065 690.276 319.065Z" fill="#3D7FFC"/>
<path d="M695.641 319.065H695.343C694.348 319.065 693.541 319.872 693.541 320.867V321.165C693.541 322.161 694.348 322.967 695.343 322.967H695.641C696.636 322.967 697.443 322.161 697.443 321.165V320.867C697.443 319.872 696.636 319.065 695.641 319.065Z" fill="#3D7FFC"/>
<path d="M719.391 329.411H701.345C700.267 329.411 699.394 330.285 699.394 331.362C699.394 332.44 700.267 333.313 701.345 333.313H719.391C720.468 333.313 721.342 332.44 721.342 331.362C721.342 330.285 720.468 329.411 719.391 329.411Z" fill="white" fill-opacity="0.2"/>
<path d="M684.911 329.411H684.613C683.618 329.411 682.811 330.218 682.811 331.213V331.511C682.811 332.506 683.618 333.313 684.613 333.313H684.911C685.906 333.313 686.713 332.506 686.713 331.511V331.213C686.713 330.218 685.906 329.411 684.911 329.411Z" fill="#3D7FFC"/>
<path d="M690.276 329.411H689.978C688.983 329.411 688.176 330.218 688.176 331.213V331.511C688.176 332.506 688.983 333.313 689.978 333.313H690.276C691.271 333.313 692.078 332.506 692.078 331.511V331.213C692.078 330.218 691.271 329.411 690.276 329.411Z" fill="#15C1E6"/>
<path d="M695.641 329.411H695.343C694.348 329.411 693.541 330.218 693.541 331.213V331.511C693.541 332.506 694.348 333.313 695.343 333.313H695.641C696.636 333.313 697.443 332.506 697.443 331.511V331.213C697.443 330.218 696.636 329.411 695.641 329.411Z" fill="#3D7FFC"/>
<path d="M719.391 339.758H701.345C700.267 339.758 699.394 340.632 699.394 341.709C699.394 342.786 700.267 343.66 701.345 343.66H719.391C720.468 343.66 721.342 342.786 721.342 341.709C721.342 340.632 720.468 339.758 719.391 339.758Z" fill="white" fill-opacity="0.2"/>
<path d="M684.911 339.758H684.613C683.618 339.758 682.811 340.565 682.811 341.56V341.858C682.811 342.853 683.618 343.66 684.613 343.66H684.911C685.906 343.66 686.713 342.853 686.713 341.858V341.56C686.713 340.565 685.906 339.758 684.911 339.758Z" fill="#3D7FFC"/>
<path d="M690.276 339.758H689.978C688.983 339.758 688.176 340.565 688.176 341.56V341.858C688.176 342.853 688.983 343.66 689.978 343.66H690.276C691.271 343.66 692.078 342.853 692.078 341.858V341.56C692.078 340.565 691.271 339.758 690.276 339.758Z" fill="#15C1E6"/>
<path d="M695.641 339.758H695.343C694.348 339.758 693.541 340.565 693.541 341.56V341.858C693.541 342.853 694.348 343.66 695.343 343.66H695.641C696.636 343.66 697.443 342.853 697.443 341.858V341.56C697.443 340.565 696.636 339.758 695.641 339.758Z" fill="#9D97F4"/>
<path d="M691.619 282.379C691.825 281.506 691.284 280.631 690.409 280.425C689.535 280.219 688.658 280.76 688.452 281.633C688.246 282.506 688.787 283.381 689.662 283.587C690.536 283.793 691.412 283.253 691.619 282.379Z" fill="#0BE597"/>
<path d="M686.74 282.267C686.883 281.382 686.281 280.547 685.394 280.404C684.507 280.26 683.672 280.861 683.528 281.747C683.384 282.632 683.986 283.467 684.873 283.611C685.76 283.754 686.596 283.153 686.74 282.267Z" fill="#0BE597"/>
<path d="M681.377 283.155C682.012 282.521 682.012 281.492 681.377 280.858C680.741 280.223 679.711 280.223 679.076 280.858C678.441 281.492 678.441 282.521 679.076 283.155C679.711 283.789 680.741 283.789 681.377 283.155Z" fill="#0BE597"/>
</g>
<defs>
<filter id="filter0_f_1436_1369" x="-302" y="-352" width="803.125" height="805.156" filterUnits="userSpaceOnUse" color-interpolation-filters="sRGB">
<feFlood flood-opacity="0" result="BackgroundImageFix"/>
<feBlend mode="normal" in="SourceGraphic" in2="BackgroundImageFix" result="shape"/>
<feGaussianBlur stdDeviation="150" result="effect1_foregroundBlur_1436_1369"/>
</filter>
<filter id="filter1_f_1436_1369" x="-316.25" y="-504.25" width="1033.91" height="1035.94" filterUnits="userSpaceOnUse" color-interpolation-filters="sRGB">
<feFlood flood-opacity="0" result="BackgroundImageFix"/>
<feBlend mode="normal" in="SourceGraphic" in2="BackgroundImageFix" result="shape"/>
<feGaussianBlur stdDeviation="203.125" result="effect1_foregroundBlur_1436_1369"/>
</filter>
<filter id="filter2_f_1436_1369" x="-324.717" y="87.2827" width="778.435" height="668.85" filterUnits="userSpaceOnUse" color-interpolation-filters="sRGB">
<feFlood flood-opacity="0" result="BackgroundImageFix"/>
<feBlend mode="normal" in="SourceGraphic" in2="BackgroundImageFix" result="shape"/>
<feGaussianBlur stdDeviation="103.859" result="effect1_foregroundBlur_1436_1369"/>
</filter>
<filter id="filter3_f_1436_1369" x="87.3125" y="-314.688" width="1160.38" height="1166.38" filterUnits="userSpaceOnUse" color-interpolation-filters="sRGB">
<feFlood flood-opacity="0" result="BackgroundImageFix"/>
<feBlend mode="normal" in="SourceGraphic" in2="BackgroundImageFix" result="shape"/>
<feGaussianBlur stdDeviation="152.344" result="effect1_foregroundBlur_1436_1369"/>
</filter>
<filter id="filter4_d_1436_1369" x="280.592" y="-76.0365" width="571.56" height="571.615" filterUnits="userSpaceOnUse" color-interpolation-filters="sRGB">
<feFlood flood-opacity="0" result="BackgroundImageFix"/>
<feColorMatrix in="SourceAlpha" type="matrix" values="0 0 0 0 0 0 0 0 0 0 0 0 0 0 0 0 0 0 127 0" result="hardAlpha"/>
<feOffset dx="-0.452222" dy="4.97445"/>
<feGaussianBlur stdDeviation="3.61778"/>
<feColorMatrix type="matrix" values="0 0 0 0 0.075 0 0 0 0 0.18 0 0 0 0 0.45 0 0 0 0.08 0"/>
<feBlend mode="normal" in2="BackgroundImageFix" result="effect1_dropShadow_1436_1369"/>
<feBlend mode="normal" in="SourceGraphic" in2="effect1_dropShadow_1436_1369" result="shape"/>
</filter>
<filter id="filter5_d_1436_1369" x="316.311" y="-39.6092" width="503.654" height="503.702" filterUnits="userSpaceOnUse" color-interpolation-filters="sRGB">
<feFlood flood-opacity="0" result="BackgroundImageFix"/>
<feColorMatrix in="SourceAlpha" type="matrix" values="0 0 0 0 0 0 0 0 0 0 0 0 0 0 0 0 0 0 127 0" result="hardAlpha"/>
<feOffset dx="-0.500545" dy="5.506"/>
<feGaussianBlur stdDeviation="4.00436"/>
<feColorMatrix type="matrix" values="0 0 0 0 0.075 0 0 0 0 0.18 0 0 0 0 0.45 0 0 0 0.08 0"/>
<feBlend mode="normal" in2="BackgroundImageFix" result="effect1_dropShadow_1436_1369"/>
<feBlend mode="normal" in="SourceGraphic" in2="effect1_dropShadow_1436_1369" result="shape"/>
</filter>
<filter id="filter6_d_1436_1369" x="346.89" y="-7.8947" width="442.528" height="442.57" filterUnits="userSpaceOnUse" color-interpolation-filters="sRGB">
<feFlood flood-opacity="0" result="BackgroundImageFix"/>
<feColorMatrix in="SourceAlpha" type="matrix" values="0 0 0 0 0 0 0 0 0 0 0 0 0 0 0 0 0 0 127 0" result="hardAlpha"/>
<feOffset dx="-0.594369" dy="6.53806"/>
<feGaussianBlur stdDeviation="4.75495"/>
<feColorMatrix type="matrix" values="0 0 0 0 0.075 0 0 0 0 0.18 0 0 0 0 0.45 0 0 0 0.08 0"/>
<feBlend mode="normal" in2="BackgroundImageFix" result="effect1_dropShadow_1436_1369"/>
<feBlend mode="normal" in="SourceGraphic" in2="effect1_dropShadow_1436_1369" result="shape"/>
</filter>
<filter id="filter7_d_1436_1369" x="380.741" y="27.9787" width="374.302" height="374.336" filterUnits="userSpaceOnUse" color-interpolation-filters="sRGB">
<feFlood flood-opacity="0" result="BackgroundImageFix"/>
<feColorMatrix in="SourceAlpha" type="matrix" values="0 0 0 0 0 0 0 0 0 0 0 0 0 0 0 0 0 0 127 0" result="hardAlpha"/>
<feOffset dx="-0.737222" dy="8.10944"/>
<feGaussianBlur stdDeviation="5.89778"/>
<feColorMatrix type="matrix" values="0 0 0 0 0.075 0 0 0 0 0.18 0 0 0 0 0.45 0 0 0 0.08 0"/>
<feBlend mode="normal" in2="BackgroundImageFix" result="effect1_dropShadow_1436_1369"/>
<feBlend mode="normal" in="SourceGraphic" in2="effect1_dropShadow_1436_1369" result="shape"/>
</filter>
<filter id="filter8_d_1436_1369" x="585.273" y="38.084" width="153.18" height="60.4384" filterUnits="userSpaceOnUse" color-interpolation-filters="sRGB">
<feFlood flood-opacity="0" result="BackgroundImageFix"/>
<feColorMatrix in="SourceAlpha" type="matrix" values="0 0 0 0 0 0 0 0 0 0 0 0 0 0 0 0 0 0 127 0" result="hardAlpha"/>
<feOffset dy="4.16816"/>
<feGaussianBlur stdDeviation="4.68918"/>
<feComposite in2="hardAlpha" operator="out"/>
<feColorMatrix type="matrix" values="0 0 0 0 0 0 0 0 0 0 0 0 0 0 0 0 0 0 0.15 0"/>
<feBlend mode="normal" in2="BackgroundImageFix" result="effect1_dropShadow_1436_1369"/>
<feBlend mode="normal" in="SourceGraphic" in2="effect1_dropShadow_1436_1369" result="shape"/>
</filter>
<filter id="filter9_d_1436_1369" x="645.711" y="119.363" width="83.3632" height="57.3121" filterUnits="userSpaceOnUse" color-interpolation-filters="sRGB">
<feFlood flood-opacity="0" result="BackgroundImageFix"/>
<feColorMatrix in="SourceAlpha" type="matrix" values="0 0 0 0 0 0 0 0 0 0 0 0 0 0 0 0 0 0 127 0" result="hardAlpha"/>
<feOffset dy="4.16816"/>
<feGaussianBlur stdDeviation="4.68918"/>
<feComposite in2="hardAlpha" operator="out"/>
<feColorMatrix type="matrix" values="0 0 0 0 0 0 0 0 0 0 0 0 0 0 0 0 0 0 0.15 0"/>
<feBlend mode="normal" in2="BackgroundImageFix" result="effect1_dropShadow_1436_1369"/>
<feBlend mode="normal" in="SourceGraphic" in2="effect1_dropShadow_1436_1369" result="shape"/>
</filter>
<filter id="filter10_d_1436_1369" x="395.622" y="109.641" width="111.932" height="59.5763" filterUnits="userSpaceOnUse" color-interpolation-filters="sRGB">
<feFlood flood-opacity="0" result="BackgroundImageFix"/>
<feColorMatrix in="SourceAlpha" type="matrix" values="0 0 0 0 0 0 0 0 0 0 0 0 0 0 0 0 0 0 127 0" result="hardAlpha"/>
<feOffset dy="4.16816"/>
<feGaussianBlur stdDeviation="4.68918"/>
<feComposite in2="hardAlpha" operator="out"/>
<feColorMatrix type="matrix" values="0 0 0 0 0 0 0 0 0 0 0 0 0 0 0 0 0 0 0.15 0"/>
<feBlend mode="normal" in2="BackgroundImageFix" result="effect1_dropShadow_1436_1369"/>
<feBlend mode="normal" in="SourceGraphic" in2="effect1_dropShadow_1436_1369" result="shape"/>
</filter>
<filter id="filter11_d_1436_1369" x="433.63" y="30.7898" width="84.946" height="68.1183" filterUnits="userSpaceOnUse" color-interpolation-filters="sRGB">
<feFlood flood-opacity="0" result="BackgroundImageFix"/>
<feColorMatrix in="SourceAlpha" type="matrix" values="0 0 0 0 0 0 0 0 0 0 0 0 0 0 0 0 0 0 127 0" result="hardAlpha"/>
<feOffset dy="4.16816"/>
<feGaussianBlur stdDeviation="4.68918"/>
<feComposite in2="hardAlpha" operator="out"/>
<feColorMatrix type="matrix" values="0 0 0 0 0 0 0 0 0 0 0 0 0 0 0 0 0 0 0.15 0"/>
<feBlend mode="normal" in2="BackgroundImageFix" result="effect1_dropShadow_1436_1369"/>
<feBlend mode="normal" in="SourceGraphic" in2="effect1_dropShadow_1436_1369" result="shape"/>
</filter>
<filter id="filter12_d_1436_1369" x="518.275" y="219.394" width="104.095" height="104.095" filterUnits="userSpaceOnUse" color-interpolation-filters="sRGB">
<feFlood flood-opacity="0" result="BackgroundImageFix"/>
<feColorMatrix in="SourceAlpha" type="matrix" values="0 0 0 0 0 0 0 0 0 0 0 0 0 0 0 0 0 0 127 0" result="hardAlpha"/>
<feOffset dy="8.00358"/>
<feGaussianBlur stdDeviation="4.00179"/>
<feComposite in2="hardAlpha" operator="out"/>
<feColorMatrix type="matrix" values="0 0 0 0 0 0 0 0 0 0 0 0 0 0 0 0 0 0 0.25 0"/>
<feBlend mode="normal" in2="BackgroundImageFix" result="effect1_dropShadow_1436_1369"/>
<feBlend mode="normal" in="SourceGraphic" in2="effect1_dropShadow_1436_1369" result="shape"/>
</filter>
<filter id="filter13_dd_1436_1369" x="517.079" y="210.195" width="117" height="117.001" filterUnits="userSpaceOnUse" color-interpolation-filters="sRGB">
<feFlood flood-opacity="0" result="BackgroundImageFix"/>
<feColorMatrix in="SourceAlpha" type="matrix" values="0 0 0 0 0 0 0 0 0 0 0 0 0 0 0 0 0 0 127 0" result="hardAlpha"/>
<feOffset dx="6.57107" dy="6.57107"/>
<feGaussianBlur stdDeviation="6.57107"/>
<feColorMatrix type="matrix" values="0 0 0 0 0 0 0 0 0 0.296699 0 0 0 0 0.858629 0 0 0 0.08 0"/>
<feBlend mode="normal" in2="BackgroundImageFix" result="effect1_dropShadow_1436_1369"/>
<feColorMatrix in="SourceAlpha" type="matrix" values="0 0 0 0 0 0 0 0 0 0 0 0 0 0 0 0 0 0 127 0" result="hardAlpha"/>
<feOffset/>
<feGaussianBlur stdDeviation="4.59975"/>
<feComposite in2="hardAlpha" operator="out"/>
<feColorMatrix type="matrix" values="0 0 0 0 0.0354167 0 0 0 0 0.105426 0 0 0 0 0.2125 0 0 0 0.07 0"/>
<feBlend mode="normal" in2="effect1_dropShadow_1436_1369" result="effect2_dropShadow_1436_1369"/>
<feBlend mode="normal" in="SourceGraphic" in2="effect2_dropShadow_1436_1369" result="shape"/>
</filter>
<filter id="filter14_dd_1436_1369" x="616.013" y="241.921" width="100.532" height="135.161" filterUnits="userSpaceOnUse" color-interpolation-filters="sRGB">
<feFlood flood-opacity="0" result="BackgroundImageFix"/>
<feColorMatrix in="SourceAlpha" type="matrix" values="0 0 0 0 0 0 0 0 0 0 0 0 0 0 0 0 0 0 127 0" result="hardAlpha"/>
<feOffset/>
<feGaussianBlur stdDeviation="11.5984"/>
<feColorMatrix type="matrix" values="0 0 0 0 0.00392157 0 0 0 0 0.00392157 0 0 0 0 0.0235294 0 0 0 0.32 0"/>
<feBlend mode="normal" in2="BackgroundImageFix" result="effect1_dropShadow_1436_1369"/>
<feColorMatrix in="SourceAlpha" type="matrix" values="0 0 0 0 0 0 0 0 0 0 0 0 0 0 0 0 0 0 127 0" result="hardAlpha"/>
<feOffset dy="6.18581"/>
<feGaussianBlur stdDeviation="3.0929"/>
<feComposite in2="hardAlpha" operator="out"/>
<feColorMatrix type="matrix" values="0 0 0 0 0 0 0 0 0 0 0 0 0 0 0 0 0 0 0.25 0"/>
<feBlend mode="normal" in2="effect1_dropShadow_1436_1369" result="effect2_dropShadow_1436_1369"/>
<feBlend mode="normal" in="SourceGraphic" in2="effect2_dropShadow_1436_1369" result="shape"/>
</filter>
<filter id="filter15_d_1436_1369" x="620.447" y="256.701" width="91.4729" height="106.992" filterUnits="userSpaceOnUse" color-interpolation-filters="sRGB">
<feFlood flood-opacity="0" result="BackgroundImageFix"/>
<feColorMatrix in="SourceAlpha" type="matrix" values="0 0 0 0 0 0 0 0 0 0 0 0 0 0 0 0 0 0 127 0" result="hardAlpha"/>
<feOffset/>
<feGaussianBlur stdDeviation="11.5984"/>
<feColorMatrix type="matrix" values="0 0 0 0 0.00392157 0 0 0 0 0.00392157 0 0 0 0 0.0235294 0 0 0 0.32 0"/>
<feBlend mode="normal" in2="BackgroundImageFix" result="effect1_dropShadow_1436_1369"/>
<feBlend mode="normal" in="SourceGraphic" in2="effect1_dropShadow_1436_1369" result="shape"/>
</filter>
<filter id="filter16_dd_1436_1369" x="651.485" y="253.007" width="100.532" height="135.161" filterUnits="userSpaceOnUse" color-interpolation-filters="sRGB">
<feFlood flood-opacity="0" result="BackgroundImageFix"/>
<feColorMatrix in="SourceAlpha" type="matrix" values="0 0 0 0 0 0 0 0 0 0 0 0 0 0 0 0 0 0 127 0" result="hardAlpha"/>
<feOffset/>
<feGaussianBlur stdDeviation="11.5984"/>
<feColorMatrix type="matrix" values="0 0 0 0 0.00392157 0 0 0 0 0.00392157 0 0 0 0 0.0235294 0 0 0 0.32 0"/>
<feBlend mode="normal" in2="BackgroundImageFix" result="effect1_dropShadow_1436_1369"/>
<feColorMatrix in="SourceAlpha" type="matrix" values="0 0 0 0 0 0 0 0 0 0 0 0 0 0 0 0 0 0 127 0" result="hardAlpha"/>
<feOffset dy="6.18581"/>
<feGaussianBlur stdDeviation="3.0929"/>
<feComposite in2="hardAlpha" operator="out"/>
<feColorMatrix type="matrix" values="0 0 0 0 0 0 0 0 0 0 0 0 0 0 0 0 0 0 0.25 0"/>
<feBlend mode="normal" in2="effect1_dropShadow_1436_1369" result="effect2_dropShadow_1436_1369"/>
<feBlend mode="normal" in="SourceGraphic" in2="effect2_dropShadow_1436_1369" result="shape"/>
</filter>
<filter id="filter17_d_1436_1369" x="655.919" y="267.787" width="91.4729" height="106.992" filterUnits="userSpaceOnUse" color-interpolation-filters="sRGB">
<feFlood flood-opacity="0" result="BackgroundImageFix"/>
<feColorMatrix in="SourceAlpha" type="matrix" values="0 0 0 0 0 0 0 0 0 0 0 0 0 0 0 0 0 0 127 0" result="hardAlpha"/>
<feOffset/>
<feGaussianBlur stdDeviation="11.5984"/>
<feColorMatrix type="matrix" values="0 0 0 0 0.00392157 0 0 0 0 0.00392157 0 0 0 0 0.0235294 0 0 0 0.32 0"/>
<feBlend mode="normal" in2="BackgroundImageFix" result="effect1_dropShadow_1436_1369"/>
<feBlend mode="normal" in="SourceGraphic" in2="effect1_dropShadow_1436_1369" result="shape"/>
</filter>
<radialGradient id="paint0_radial_1436_1369" cx="0" cy="0" r="1" gradientUnits="userSpaceOnUse" gradientTransform="translate(580.136 202.389) rotate(90) scale(99.7168 245.383)">
<stop stop-color="#14458C"/>
<stop offset="0.515625" stop-color="#0C3470" stop-opacity="0.8"/>
<stop offset="1" stop-color="#092349" stop-opacity="0"/>
</radialGradient>
<linearGradient id="paint1_linear_1436_1369" x1="662.784" y1="118.699" x2="481.113" y2="288.58" gradientUnits="userSpaceOnUse">
<stop stop-color="#303B45" stop-opacity="0"/>
<stop offset="0.276042" stop-color="#0C1014" stop-opacity="0.744681"/>
<stop offset="0.489583" stop-color="#000203"/>
<stop offset="0.729167" stop-color="#0D1115" stop-opacity="0.72449"/>
<stop offset="1" stop-color="#303B45" stop-opacity="0"/>
</linearGradient>
<linearGradient id="paint2_linear_1436_1369" x1="390.188" y1="-10.6551" x2="765.695" y2="401.241" gradientUnits="userSpaceOnUse">
<stop stop-color="#3160A6"/>
<stop offset="1" stop-color="#1B4582"/>
</linearGradient>
<linearGradient id="paint3_linear_1436_1369" x1="414.128" y1="18.2713" x2="742.599" y2="378.573" gradientUnits="userSpaceOnUse">
<stop stop-color="#3160A6"/>
<stop offset="1" stop-color="#1B4582"/>
</linearGradient>
<linearGradient id="paint4_linear_1436_1369" x1="434.716" y1="43.3656" x2="719.654" y2="355.916" gradientUnits="userSpaceOnUse">
<stop stop-color="#3160A6"/>
<stop offset="1" stop-color="#1B4582"/>
</linearGradient>
<linearGradient id="paint5_linear_1436_1369" x1="457.879" y1="71.9494" x2="693.321" y2="330.207" gradientUnits="userSpaceOnUse">
<stop stop-color="#3160A6"/>
<stop offset="1" stop-color="#1B4582"/>
</linearGradient>
<linearGradient id="paint6_linear_1436_1369" x1="617.409" y1="185.6" x2="519.411" y2="300.961" gradientUnits="userSpaceOnUse">
<stop stop-color="#0A479C"/>
<stop offset="1" stop-color="#091B36"/>
</linearGradient>
<linearGradient id="paint7_linear_1436_1369" x1="537.618" y1="300.963" x2="623.272" y2="236.722" gradientUnits="userSpaceOnUse">
<stop stop-color="#3D7FFC"/>
<stop offset="1" stop-color="#15C1E6"/>
</linearGradient>
<clipPath id="clip0_1436_1369">
<rect width="780" height="400" fill="white"/>
</clipPath>
</defs>
</svg>
